<?xml version="1.0" encoding="UTF-8" standalone="no"?>
<svg
   xmlns:dc="http://purl.org/dc/elements/1.1/"
   xmlns:cc="http://creativecommons.org/ns#"
   xmlns:rdf="http://www.w3.org/1999/02/22-rdf-syntax-ns#"
   xmlns:svg="http://www.w3.org/2000/svg"
   xmlns="http://www.w3.org/2000/svg"
   id="svg10"
   zoomAndPan="magnify"
   width="213.0"
   viewBox="106.1 76.6 213.0 272.4"
   version="1.0"
   preserveAspectRatio="xMidYMid meet"
   height="272.4">
  <metadata
     id="metadata16">
    <rdf:RDF>
      <cc:Work
         rdf:about="">
        <dc:format>image/svg+xml</dc:format>
        <dc:type
           rdf:resource="http://purl.org/dc/dcmitype/StillImage" />
      </cc:Work>
    </rdf:RDF>
  </metadata>
  <defs
     id="defs14" />
  <path
     id="path2"
     stroke-width="17"
     stroke-miterlimit="10"
     stroke-linejoin="round"
     stroke-linecap="round"
     stroke="#4f4f50"
     fill="none"
     d="M188.3,135.7c7.28-3.75,15.54-5.86,24.3-5.86c29.38,0,53.2,23.82,53.2,53.2c0,29.38-23.82,53.2-53.2,53.2 s-53.2-23.82-53.2-53.2c0-11.53,3.67-22.21,9.91-30.93" />
  <path
     id="path4"
     stroke-width="17"
     stroke-miterlimit="10"
     stroke-linejoin="round"
     stroke-linecap="round"
     stroke="#4f4f50"
     fill="none"
     d="M310.6,183.04c0,12.18-18.14,20.66-22.53,31.26c-4.55,10.98,2.1,29.77-6.17,38.04 c-8.27,8.27-27.06,1.62-38.04,6.17c-10.59,4.39-19.08,22.53-31.26,22.53s-20.66-18.14-31.26-22.53 c-10.98-4.55-29.77,2.1-38.04-6.17c-8.27-8.27-1.62-27.06-6.17-38.04c-4.39-10.59-22.53-19.08-22.53-31.25 c0-12.18,18.14-20.66,22.53-31.26c4.55-10.98-2.1-29.77,6.17-38.04c8.27-8.27,27.06-1.62,38.04-6.17 c10.59-4.39,19.08-22.53,31.25-22.53s20.66,18.14,31.26,22.53c10.98,4.55,29.77-2.1,38.04,6.17c8.27,8.27,1.62,27.06,6.17,38.04 C292.46,162.38,310.6,170.86,310.6,183.04z" />
  <path
     id="path6"
     stroke-width="17"
     stroke-miterlimit="10"
     stroke-linejoin="round"
     stroke-linecap="round"
     stroke="#4f4f50"
     fill="none"
     d="M150.37 278.07L132.8 317.07 159.4 315.5 176.63 340.16 194.19 297.95" />
  <path
     id="path8"
     stroke-width="17"
     stroke-miterlimit="10"
     stroke-linejoin="round"
     stroke-linecap="round"
     stroke="#4f4f50"
     fill="none"
     d="M283.89 274.96L301.85 314.84 275.25 313.27 258.02 337.93 238.49 290.98" />
</svg>
